<mxfile host="Electron" modified="2023-08-29T09:33:03.268Z" agent="Mozilla/5.0 (Macintosh; Intel Mac OS X 10_15_7) AppleWebKit/537.36 (KHTML, like Gecko) draw.io/21.6.8 Chrome/114.0.5735.289 Electron/25.5.0 Safari/537.36" etag="NDW3ZADlQ_U8R2ifcdG3" version="21.6.8" type="device">
  <diagram name="Page-1" id="1Gpq6Dzdud-Ctyd0bL78">
    <mxGraphModel dx="1878" dy="627" grid="1" gridSize="10" guides="1" tooltips="1" connect="1" arrows="1" fold="1" page="1" pageScale="1" pageWidth="827" pageHeight="1169" math="0" shadow="0">
      <root>
        <mxCell id="0" />
        <mxCell id="1" parent="0" />
        <mxCell id="RTbSvToknn_Ha28EU1Vl-51" value="" style="rounded=0;whiteSpace=wrap;html=1;fillColor=none;dashed=1;dashPattern=1 4;" vertex="1" parent="1">
          <mxGeometry x="920" y="405" width="200" height="180" as="geometry" />
        </mxCell>
        <mxCell id="RTbSvToknn_Ha28EU1Vl-18" value="" style="rounded=0;whiteSpace=wrap;html=1;fillColor=none;dashed=1;dashPattern=1 4;" vertex="1" parent="1">
          <mxGeometry x="920" y="130" width="200" height="180" as="geometry" />
        </mxCell>
        <mxCell id="RTbSvToknn_Ha28EU1Vl-1" value="" style="sketch=0;points=[[0,0,0],[0.25,0,0],[0.5,0,0],[0.75,0,0],[1,0,0],[0,1,0],[0.25,1,0],[0.5,1,0],[0.75,1,0],[1,1,0],[0,0.25,0],[0,0.5,0],[0,0.75,0],[1,0.25,0],[1,0.5,0],[1,0.75,0]];outlineConnect=0;fontColor=#232F3E;gradientColor=#4D72F3;gradientDirection=north;fillColor=#3334B9;strokeColor=#ffffff;dashed=0;verticalLabelPosition=bottom;verticalAlign=top;align=center;html=1;fontSize=12;fontStyle=0;aspect=fixed;shape=mxgraph.aws4.resourceIcon;resIcon=mxgraph.aws4.dynamodb;" vertex="1" parent="1">
          <mxGeometry x="46" y="200" width="78" height="78" as="geometry" />
        </mxCell>
        <mxCell id="RTbSvToknn_Ha28EU1Vl-2" value="" style="sketch=0;points=[[0,0,0],[0.25,0,0],[0.5,0,0],[0.75,0,0],[1,0,0],[0,1,0],[0.25,1,0],[0.5,1,0],[0.75,1,0],[1,1,0],[0,0.25,0],[0,0.5,0],[0,0.75,0],[1,0.25,0],[1,0.5,0],[1,0.75,0]];outlineConnect=0;fontColor=#232F3E;gradientColor=#F78E04;gradientDirection=north;fillColor=#D05C17;strokeColor=#ffffff;dashed=0;verticalLabelPosition=bottom;verticalAlign=top;align=center;html=1;fontSize=12;fontStyle=0;aspect=fixed;shape=mxgraph.aws4.resourceIcon;resIcon=mxgraph.aws4.lambda;" vertex="1" parent="1">
          <mxGeometry x="400" y="200" width="78" height="78" as="geometry" />
        </mxCell>
        <mxCell id="RTbSvToknn_Ha28EU1Vl-4" value="Announcements&amp;nbsp;Handler&lt;br&gt;Connector&lt;br&gt;AWS Lambda" style="text;html=1;align=center;verticalAlign=middle;resizable=0;points=[];autosize=1;strokeColor=none;fillColor=none;" vertex="1" parent="1">
          <mxGeometry x="360" y="280" width="160" height="60" as="geometry" />
        </mxCell>
        <mxCell id="RTbSvToknn_Ha28EU1Vl-5" value="AnnouncementTable&lt;br&gt;AWS DynamoDB" style="text;html=1;align=center;verticalAlign=middle;resizable=0;points=[];autosize=1;strokeColor=none;fillColor=none;" vertex="1" parent="1">
          <mxGeometry x="20" y="290" width="130" height="40" as="geometry" />
        </mxCell>
        <mxCell id="RTbSvToknn_Ha28EU1Vl-6" value="" style="edgeStyle=orthogonalEdgeStyle;html=1;endArrow=block;elbow=vertical;startArrow=none;endFill=1;strokeColor=#545B64;rounded=0;entryX=0;entryY=0.5;entryDx=0;entryDy=0;entryPerimeter=0;exitX=1.001;exitY=0.21;exitDx=0;exitDy=0;exitPerimeter=0;" edge="1" parent="1" source="RTbSvToknn_Ha28EU1Vl-42" target="RTbSvToknn_Ha28EU1Vl-2">
          <mxGeometry width="100" relative="1" as="geometry">
            <mxPoint x="240" y="239" as="sourcePoint" />
            <mxPoint x="340" y="240" as="targetPoint" />
          </mxGeometry>
        </mxCell>
        <mxCell id="RTbSvToknn_Ha28EU1Vl-7" value="Announcements Stream" style="edgeLabel;html=1;align=center;verticalAlign=middle;resizable=0;points=[];" vertex="1" connectable="0" parent="RTbSvToknn_Ha28EU1Vl-6">
          <mxGeometry x="-0.4268" relative="1" as="geometry">
            <mxPoint x="34" as="offset" />
          </mxGeometry>
        </mxCell>
        <mxCell id="RTbSvToknn_Ha28EU1Vl-9" value="" style="edgeStyle=orthogonalEdgeStyle;html=1;endArrow=block;elbow=vertical;startArrow=none;endFill=1;strokeColor=#545B64;rounded=0;entryX=0;entryY=0.5;entryDx=0;entryDy=0;entryPerimeter=0;" edge="1" parent="1">
          <mxGeometry width="100" relative="1" as="geometry">
            <mxPoint x="480" y="239" as="sourcePoint" />
            <mxPoint x="640" y="239" as="targetPoint" />
          </mxGeometry>
        </mxCell>
        <mxCell id="RTbSvToknn_Ha28EU1Vl-26" value="Notifications" style="edgeLabel;html=1;align=center;verticalAlign=middle;resizable=0;points=[];" vertex="1" connectable="0" parent="RTbSvToknn_Ha28EU1Vl-9">
          <mxGeometry x="-0.2712" relative="1" as="geometry">
            <mxPoint x="12" y="1" as="offset" />
          </mxGeometry>
        </mxCell>
        <mxCell id="RTbSvToknn_Ha28EU1Vl-10" value="" style="sketch=0;points=[[0,0,0],[0.25,0,0],[0.5,0,0],[0.75,0,0],[1,0,0],[0,1,0],[0.25,1,0],[0.5,1,0],[0.75,1,0],[1,1,0],[0,0.25,0],[0,0.5,0],[0,0.75,0],[1,0.25,0],[1,0.5,0],[1,0.75,0]];outlineConnect=0;fontColor=#232F3E;gradientColor=#FF4F8B;gradientDirection=north;fillColor=#BC1356;strokeColor=#ffffff;dashed=0;verticalLabelPosition=bottom;verticalAlign=top;align=center;html=1;fontSize=12;fontStyle=0;aspect=fixed;shape=mxgraph.aws4.resourceIcon;resIcon=mxgraph.aws4.appsync;" vertex="1" parent="1">
          <mxGeometry x="-314" y="200" width="78" height="78" as="geometry" />
        </mxCell>
        <mxCell id="RTbSvToknn_Ha28EU1Vl-13" value="" style="sketch=0;outlineConnect=0;fontColor=#232F3E;gradientColor=none;fillColor=#232F3D;strokeColor=none;dashed=0;verticalLabelPosition=bottom;verticalAlign=top;align=center;html=1;fontSize=12;fontStyle=0;aspect=fixed;pointerEvents=1;shape=mxgraph.aws4.mobile_client;" vertex="1" parent="1">
          <mxGeometry x="1440" y="181" width="41" height="78" as="geometry" />
        </mxCell>
        <mxCell id="RTbSvToknn_Ha28EU1Vl-14" value="" style="sketch=0;outlineConnect=0;fontColor=#232F3E;gradientColor=none;fillColor=#232F3D;strokeColor=none;dashed=0;verticalLabelPosition=bottom;verticalAlign=top;align=center;html=1;fontSize=12;fontStyle=0;aspect=fixed;pointerEvents=1;shape=mxgraph.aws4.client;" vertex="1" parent="1">
          <mxGeometry x="-590" y="304.5" width="78" height="76" as="geometry" />
        </mxCell>
        <mxCell id="RTbSvToknn_Ha28EU1Vl-15" value="" style="sketch=0;points=[[0,0,0],[0.25,0,0],[0.5,0,0],[0.75,0,0],[1,0,0],[0,1,0],[0.25,1,0],[0.5,1,0],[0.75,1,0],[1,1,0],[0,0.25,0],[0,0.5,0],[0,0.75,0],[1,0.25,0],[1,0.5,0],[1,0.75,0]];outlineConnect=0;fontColor=#232F3E;gradientColor=#FF5252;gradientDirection=north;fillColor=#C7131F;strokeColor=#ffffff;dashed=0;verticalLabelPosition=bottom;verticalAlign=top;align=center;html=1;fontSize=12;fontStyle=0;aspect=fixed;shape=mxgraph.aws4.resourceIcon;resIcon=mxgraph.aws4.pinpoint;" vertex="1" parent="1">
          <mxGeometry x="640" y="201" width="78" height="78" as="geometry" />
        </mxCell>
        <mxCell id="RTbSvToknn_Ha28EU1Vl-16" value="" style="edgeStyle=orthogonalEdgeStyle;html=1;endArrow=block;elbow=vertical;startArrow=none;endFill=1;strokeColor=#545B64;rounded=0;exitX=1;exitY=0.25;exitDx=0;exitDy=0;exitPerimeter=0;entryX=0;entryY=0.5;entryDx=0;entryDy=0;" edge="1" parent="1" source="RTbSvToknn_Ha28EU1Vl-15" target="RTbSvToknn_Ha28EU1Vl-18">
          <mxGeometry width="100" relative="1" as="geometry">
            <mxPoint x="720" y="240" as="sourcePoint" />
            <mxPoint x="920" y="240" as="targetPoint" />
          </mxGeometry>
        </mxCell>
        <mxCell id="RTbSvToknn_Ha28EU1Vl-17" value="" style="dashed=0;outlineConnect=0;html=1;align=center;labelPosition=center;verticalLabelPosition=bottom;verticalAlign=top;shape=mxgraph.webicons.apple;fillColor=#807E7E;gradientColor=#1B1C1C" vertex="1" parent="1">
          <mxGeometry x="968.8" y="150" width="102.4" height="102.4" as="geometry" />
        </mxCell>
        <mxCell id="RTbSvToknn_Ha28EU1Vl-19" value="Apple&lt;br&gt;Push Notification Service" style="text;html=1;align=center;verticalAlign=middle;resizable=0;points=[];autosize=1;strokeColor=none;fillColor=none;" vertex="1" parent="1">
          <mxGeometry x="940" y="260" width="160" height="40" as="geometry" />
        </mxCell>
        <mxCell id="RTbSvToknn_Ha28EU1Vl-20" value="" style="edgeStyle=orthogonalEdgeStyle;html=1;endArrow=block;elbow=vertical;startArrow=none;endFill=1;strokeColor=#545B64;rounded=0;exitX=1;exitY=0.5;exitDx=0;exitDy=0;" edge="1" parent="1" source="RTbSvToknn_Ha28EU1Vl-18" target="RTbSvToknn_Ha28EU1Vl-13">
          <mxGeometry width="100" relative="1" as="geometry">
            <mxPoint x="1300" y="360" as="sourcePoint" />
            <mxPoint x="1400" y="360" as="targetPoint" />
            <Array as="points">
              <mxPoint x="1290" y="220" />
              <mxPoint x="1290" y="220" />
            </Array>
          </mxGeometry>
        </mxCell>
        <mxCell id="RTbSvToknn_Ha28EU1Vl-21" value="Push Notification" style="edgeLabel;html=1;align=center;verticalAlign=middle;resizable=0;points=[];" vertex="1" connectable="0" parent="RTbSvToknn_Ha28EU1Vl-20">
          <mxGeometry x="-0.2169" y="-2" relative="1" as="geometry">
            <mxPoint x="-6" y="-2" as="offset" />
          </mxGeometry>
        </mxCell>
        <mxCell id="RTbSvToknn_Ha28EU1Vl-23" value="" style="html=1;verticalLabelPosition=bottom;align=center;labelBackgroundColor=#ffffff;verticalAlign=top;strokeWidth=2;strokeColor=#0080F0;shadow=0;dashed=0;shape=mxgraph.ios7.icons.mail;" vertex="1" parent="1">
          <mxGeometry x="1445.5" y="70.75" width="30" height="16.5" as="geometry" />
        </mxCell>
        <mxCell id="RTbSvToknn_Ha28EU1Vl-24" value="" style="edgeStyle=orthogonalEdgeStyle;html=1;endArrow=block;elbow=vertical;startArrow=none;endFill=1;strokeColor=#545B64;rounded=0;exitX=0.75;exitY=0;exitDx=0;exitDy=0;exitPerimeter=0;entryX=-0.171;entryY=0.63;entryDx=0;entryDy=0;entryPerimeter=0;" edge="1" parent="1" source="RTbSvToknn_Ha28EU1Vl-15" target="RTbSvToknn_Ha28EU1Vl-23">
          <mxGeometry width="100" relative="1" as="geometry">
            <mxPoint x="970" y="50" as="sourcePoint" />
            <mxPoint x="1340" y="120" as="targetPoint" />
            <Array as="points">
              <mxPoint x="699" y="80" />
              <mxPoint x="1440" y="80" />
            </Array>
          </mxGeometry>
        </mxCell>
        <mxCell id="RTbSvToknn_Ha28EU1Vl-47" value="Email" style="edgeLabel;html=1;align=center;verticalAlign=middle;resizable=0;points=[];" vertex="1" connectable="0" parent="RTbSvToknn_Ha28EU1Vl-24">
          <mxGeometry x="0.4652" y="-1" relative="1" as="geometry">
            <mxPoint y="1" as="offset" />
          </mxGeometry>
        </mxCell>
        <mxCell id="RTbSvToknn_Ha28EU1Vl-25" value="GraphQL API&lt;br&gt;AWS AppSync" style="text;html=1;align=center;verticalAlign=middle;resizable=0;points=[];autosize=1;strokeColor=none;fillColor=none;" vertex="1" parent="1">
          <mxGeometry x="-325" y="280" width="100" height="40" as="geometry" />
        </mxCell>
        <mxCell id="RTbSvToknn_Ha28EU1Vl-27" value="AWS PinPoint" style="text;html=1;align=center;verticalAlign=middle;resizable=0;points=[];autosize=1;strokeColor=none;fillColor=none;" vertex="1" parent="1">
          <mxGeometry x="629" y="280" width="100" height="30" as="geometry" />
        </mxCell>
        <mxCell id="RTbSvToknn_Ha28EU1Vl-30" value="" style="edgeStyle=orthogonalEdgeStyle;html=1;endArrow=block;elbow=vertical;startArrow=none;endFill=1;strokeColor=#545B64;rounded=0;entryX=0;entryY=0.5;entryDx=0;entryDy=0;entryPerimeter=0;exitX=1;exitY=0.5;exitDx=0;exitDy=0;exitPerimeter=0;" edge="1" parent="1" source="RTbSvToknn_Ha28EU1Vl-10" target="RTbSvToknn_Ha28EU1Vl-1">
          <mxGeometry width="100" relative="1" as="geometry">
            <mxPoint x="-254" y="250" as="sourcePoint" />
            <mxPoint x="-154" y="250" as="targetPoint" />
            <Array as="points">
              <mxPoint x="-164" y="239" />
              <mxPoint x="-164" y="239" />
            </Array>
          </mxGeometry>
        </mxCell>
        <mxCell id="RTbSvToknn_Ha28EU1Vl-31" value="createAnnouncementRequest" style="edgeLabel;html=1;align=center;verticalAlign=middle;resizable=0;points=[];" vertex="1" connectable="0" parent="RTbSvToknn_Ha28EU1Vl-30">
          <mxGeometry x="-0.1348" y="-3" relative="1" as="geometry">
            <mxPoint as="offset" />
          </mxGeometry>
        </mxCell>
        <mxCell id="RTbSvToknn_Ha28EU1Vl-34" value="" style="edgeStyle=orthogonalEdgeStyle;html=1;endArrow=block;elbow=vertical;startArrow=none;endFill=1;strokeColor=#545B64;rounded=0;entryX=0.25;entryY=0;entryDx=0;entryDy=0;entryPerimeter=0;" edge="1" parent="1" source="RTbSvToknn_Ha28EU1Vl-57" target="RTbSvToknn_Ha28EU1Vl-15">
          <mxGeometry width="100" relative="1" as="geometry">
            <mxPoint x="-551" y="100" as="sourcePoint" />
            <mxPoint x="650" y="38.69999999999999" as="targetPoint" />
            <Array as="points">
              <mxPoint x="-551" y="80" />
              <mxPoint x="659" y="80" />
            </Array>
          </mxGeometry>
        </mxCell>
        <mxCell id="RTbSvToknn_Ha28EU1Vl-35" value="UpdateEndPointRequest" style="edgeLabel;html=1;align=center;verticalAlign=middle;resizable=0;points=[];" vertex="1" connectable="0" parent="RTbSvToknn_Ha28EU1Vl-34">
          <mxGeometry x="-0.0711" y="-2" relative="1" as="geometry">
            <mxPoint x="-159" y="-3" as="offset" />
          </mxGeometry>
        </mxCell>
        <mxCell id="RTbSvToknn_Ha28EU1Vl-36" value="" style="sketch=0;points=[[0,0,0],[0.25,0,0],[0.5,0,0],[0.75,0,0],[1,0,0],[0,1,0],[0.25,1,0],[0.5,1,0],[0.75,1,0],[1,1,0],[0,0.25,0],[0,0.5,0],[0,0.75,0],[1,0.25,0],[1,0.5,0],[1,0.75,0]];outlineConnect=0;fontColor=#232F3E;gradientColor=#F78E04;gradientDirection=north;fillColor=#D05C17;strokeColor=#ffffff;dashed=0;verticalLabelPosition=bottom;verticalAlign=top;align=center;html=1;fontSize=12;fontStyle=0;aspect=fixed;shape=mxgraph.aws4.resourceIcon;resIcon=mxgraph.aws4.lambda;" vertex="1" parent="1">
          <mxGeometry x="640" y="520" width="78" height="78" as="geometry" />
        </mxCell>
        <mxCell id="RTbSvToknn_Ha28EU1Vl-38" value="" style="edgeStyle=orthogonalEdgeStyle;html=1;endArrow=block;elbow=vertical;startArrow=none;endFill=1;strokeColor=#545B64;rounded=0;entryX=0.5;entryY=0;entryDx=0;entryDy=0;entryPerimeter=0;" edge="1" parent="1" target="RTbSvToknn_Ha28EU1Vl-36">
          <mxGeometry width="100" relative="1" as="geometry">
            <mxPoint x="680" y="313" as="sourcePoint" />
            <mxPoint x="670" y="630" as="targetPoint" />
            <Array as="points">
              <mxPoint x="679" y="314" />
            </Array>
          </mxGeometry>
        </mxCell>
        <mxCell id="RTbSvToknn_Ha28EU1Vl-39" value="UpdateEndPointEvent" style="edgeLabel;html=1;align=center;verticalAlign=middle;resizable=0;points=[];" vertex="1" connectable="0" parent="RTbSvToknn_Ha28EU1Vl-38">
          <mxGeometry x="0.006" y="3" relative="1" as="geometry">
            <mxPoint y="14" as="offset" />
          </mxGeometry>
        </mxCell>
        <mxCell id="RTbSvToknn_Ha28EU1Vl-41" value="" style="edgeStyle=orthogonalEdgeStyle;html=1;endArrow=none;elbow=vertical;startArrow=block;startFill=1;strokeColor=#545B64;rounded=0;entryX=0;entryY=0.5;entryDx=0;entryDy=0;entryPerimeter=0;exitX=0.5;exitY=1;exitDx=0;exitDy=0;" edge="1" parent="1" source="RTbSvToknn_Ha28EU1Vl-42" target="RTbSvToknn_Ha28EU1Vl-36">
          <mxGeometry width="100" relative="1" as="geometry">
            <mxPoint x="-230" y="559" as="sourcePoint" />
            <mxPoint x="80" y="560" as="targetPoint" />
          </mxGeometry>
        </mxCell>
        <mxCell id="RTbSvToknn_Ha28EU1Vl-43" value="StoreNotificationPreferences" style="edgeLabel;html=1;align=center;verticalAlign=middle;resizable=0;points=[];" vertex="1" connectable="0" parent="RTbSvToknn_Ha28EU1Vl-41">
          <mxGeometry x="0.0846" y="-1" relative="1" as="geometry">
            <mxPoint y="-1" as="offset" />
          </mxGeometry>
        </mxCell>
        <mxCell id="RTbSvToknn_Ha28EU1Vl-42" value="GraphQL API" style="points=[[0,0],[0.25,0],[0.5,0],[0.75,0],[1,0],[1,0.25],[1,0.5],[1,0.75],[1,1],[0.75,1],[0.5,1],[0.25,1],[0,1],[0,0.75],[0,0.5],[0,0.25]];outlineConnect=0;gradientColor=none;html=1;whiteSpace=wrap;fontSize=12;fontStyle=0;container=1;pointerEvents=0;collapsible=0;recursiveResize=0;shape=mxgraph.aws4.group;grIcon=mxgraph.aws4.group_account;strokeColor=#CD2264;fillColor=none;verticalAlign=top;align=left;spacingLeft=30;fontColor=#CD2264;dashed=0;" vertex="1" parent="1">
          <mxGeometry x="-340" y="165" width="486" height="355" as="geometry" />
        </mxCell>
        <mxCell id="RTbSvToknn_Ha28EU1Vl-28" value="" style="sketch=0;points=[[0,0,0],[0.25,0,0],[0.5,0,0],[0.75,0,0],[1,0,0],[0,1,0],[0.25,1,0],[0.5,1,0],[0.75,1,0],[1,1,0],[0,0.25,0],[0,0.5,0],[0,0.75,0],[1,0.25,0],[1,0.5,0],[1,0.75,0]];outlineConnect=0;fontColor=#232F3E;gradientColor=#4D72F3;gradientDirection=north;fillColor=#3334B9;strokeColor=#ffffff;dashed=0;verticalLabelPosition=bottom;verticalAlign=top;align=center;html=1;fontSize=12;fontStyle=0;aspect=fixed;shape=mxgraph.aws4.resourceIcon;resIcon=mxgraph.aws4.dynamodb;" vertex="1" parent="RTbSvToknn_Ha28EU1Vl-42">
          <mxGeometry x="386" y="195" width="78" height="78" as="geometry" />
        </mxCell>
        <mxCell id="RTbSvToknn_Ha28EU1Vl-29" value="UsersTable&lt;br&gt;AWS DynamoDB" style="text;html=1;align=center;verticalAlign=middle;resizable=0;points=[];autosize=1;strokeColor=none;fillColor=none;" vertex="1" parent="RTbSvToknn_Ha28EU1Vl-42">
          <mxGeometry x="365" y="273" width="120" height="40" as="geometry" />
        </mxCell>
        <mxCell id="RTbSvToknn_Ha28EU1Vl-44" value="" style="edgeStyle=orthogonalEdgeStyle;html=1;endArrow=block;elbow=vertical;startArrow=none;endFill=1;strokeColor=#545B64;rounded=0;exitX=0.444;exitY=1.021;exitDx=0;exitDy=0;exitPerimeter=0;entryX=0;entryY=0.5;entryDx=0;entryDy=0;entryPerimeter=0;" edge="1" parent="1" source="RTbSvToknn_Ha28EU1Vl-25" target="RTbSvToknn_Ha28EU1Vl-28">
          <mxGeometry width="100" relative="1" as="geometry">
            <mxPoint x="-250" y="620" as="sourcePoint" />
            <mxPoint x="-150" y="620" as="targetPoint" />
          </mxGeometry>
        </mxCell>
        <mxCell id="RTbSvToknn_Ha28EU1Vl-45" value="updateNotificationPreferencesRequest" style="edgeLabel;html=1;align=center;verticalAlign=middle;resizable=0;points=[];" vertex="1" connectable="0" parent="RTbSvToknn_Ha28EU1Vl-44">
          <mxGeometry x="-0.0467" y="-4" relative="1" as="geometry">
            <mxPoint x="46" y="-4" as="offset" />
          </mxGeometry>
        </mxCell>
        <mxCell id="RTbSvToknn_Ha28EU1Vl-46" value="NotificationPreferanceHandler&lt;br&gt;AWS Lambda" style="text;html=1;align=center;verticalAlign=middle;resizable=0;points=[];autosize=1;strokeColor=none;fillColor=none;" vertex="1" parent="1">
          <mxGeometry x="589" y="593" width="180" height="40" as="geometry" />
        </mxCell>
        <mxCell id="RTbSvToknn_Ha28EU1Vl-48" value="" style="strokeColor=#dddddd;shadow=1;strokeWidth=1;rounded=1;absoluteArcSize=1;arcSize=2;" vertex="1" parent="1">
          <mxGeometry x="968.8" y="440" width="100" height="60" as="geometry" />
        </mxCell>
        <mxCell id="RTbSvToknn_Ha28EU1Vl-49" value="Firebase" style="sketch=0;dashed=0;connectable=0;html=1;fillColor=#5184F3;strokeColor=none;shape=mxgraph.gcp2.firebase;part=1;labelPosition=right;verticalLabelPosition=middle;align=left;verticalAlign=middle;spacingLeft=5;fontColor=#999999;fontSize=12;" vertex="1" parent="RTbSvToknn_Ha28EU1Vl-48">
          <mxGeometry width="32.4" height="45" relative="1" as="geometry">
            <mxPoint x="5" y="7" as="offset" />
          </mxGeometry>
        </mxCell>
        <mxCell id="RTbSvToknn_Ha28EU1Vl-50" value="Firebase Cloud Messaging" style="text;html=1;align=center;verticalAlign=middle;resizable=0;points=[];autosize=1;strokeColor=none;fillColor=none;" vertex="1" parent="1">
          <mxGeometry x="940" y="520" width="170" height="30" as="geometry" />
        </mxCell>
        <mxCell id="RTbSvToknn_Ha28EU1Vl-52" value="" style="edgeStyle=orthogonalEdgeStyle;html=1;endArrow=block;elbow=vertical;startArrow=none;endFill=1;strokeColor=#545B64;rounded=0;exitX=1;exitY=0.75;exitDx=0;exitDy=0;exitPerimeter=0;entryX=0;entryY=0.5;entryDx=0;entryDy=0;" edge="1" parent="1" source="RTbSvToknn_Ha28EU1Vl-15" target="RTbSvToknn_Ha28EU1Vl-51">
          <mxGeometry width="100" relative="1" as="geometry">
            <mxPoint x="1230" y="550" as="sourcePoint" />
            <mxPoint x="1330" y="550" as="targetPoint" />
          </mxGeometry>
        </mxCell>
        <mxCell id="RTbSvToknn_Ha28EU1Vl-53" value="" style="edgeStyle=orthogonalEdgeStyle;html=1;endArrow=block;elbow=vertical;startArrow=none;endFill=1;strokeColor=#545B64;rounded=0;exitX=1;exitY=0.5;exitDx=0;exitDy=0;" edge="1" parent="1" source="RTbSvToknn_Ha28EU1Vl-51" target="RTbSvToknn_Ha28EU1Vl-13">
          <mxGeometry width="100" relative="1" as="geometry">
            <mxPoint x="1410" y="490" as="sourcePoint" />
            <mxPoint x="1510" y="490" as="targetPoint" />
          </mxGeometry>
        </mxCell>
        <mxCell id="RTbSvToknn_Ha28EU1Vl-54" value="Push Notification" style="edgeLabel;html=1;align=center;verticalAlign=middle;resizable=0;points=[];" vertex="1" connectable="0" parent="RTbSvToknn_Ha28EU1Vl-53">
          <mxGeometry x="-0.5997" y="-2" relative="1" as="geometry">
            <mxPoint x="6" y="-2" as="offset" />
          </mxGeometry>
        </mxCell>
        <mxCell id="RTbSvToknn_Ha28EU1Vl-56" value="" style="rounded=0;whiteSpace=wrap;html=1;fillColor=none;" vertex="1" parent="1">
          <mxGeometry x="180" y="40" width="700" height="600" as="geometry" />
        </mxCell>
        <mxCell id="RTbSvToknn_Ha28EU1Vl-57" value="" style="sketch=0;outlineConnect=0;fontColor=#232F3E;gradientColor=none;fillColor=#232F3D;strokeColor=none;dashed=0;verticalLabelPosition=bottom;verticalAlign=top;align=center;html=1;fontSize=12;fontStyle=0;aspect=fixed;pointerEvents=1;shape=mxgraph.aws4.mobile_client;" vertex="1" parent="1">
          <mxGeometry x="-571.5" y="110" width="41" height="78" as="geometry" />
        </mxCell>
        <mxCell id="RTbSvToknn_Ha28EU1Vl-58" value="" style="edgeStyle=orthogonalEdgeStyle;html=1;endArrow=block;elbow=vertical;startArrow=none;endFill=1;strokeColor=#545B64;rounded=0;" edge="1" parent="1" source="RTbSvToknn_Ha28EU1Vl-14" target="RTbSvToknn_Ha28EU1Vl-42">
          <mxGeometry width="100" relative="1" as="geometry">
            <mxPoint x="-510" y="300" as="sourcePoint" />
            <mxPoint x="-410" y="300" as="targetPoint" />
          </mxGeometry>
        </mxCell>
        <mxCell id="RTbSvToknn_Ha28EU1Vl-59" value="createAnnouncement" style="edgeLabel;html=1;align=center;verticalAlign=middle;resizable=0;points=[];" vertex="1" connectable="0" parent="RTbSvToknn_Ha28EU1Vl-58">
          <mxGeometry x="-0.235" relative="1" as="geometry">
            <mxPoint as="offset" />
          </mxGeometry>
        </mxCell>
        <mxCell id="RTbSvToknn_Ha28EU1Vl-60" value="Web App" style="text;html=1;align=center;verticalAlign=middle;resizable=0;points=[];autosize=1;strokeColor=none;fillColor=none;" vertex="1" parent="1">
          <mxGeometry x="-586" y="380.5" width="70" height="30" as="geometry" />
        </mxCell>
        <mxCell id="RTbSvToknn_Ha28EU1Vl-61" value="Mobiel App" style="text;html=1;align=center;verticalAlign=middle;resizable=0;points=[];autosize=1;strokeColor=none;fillColor=none;" vertex="1" parent="1">
          <mxGeometry x="-590" y="188" width="80" height="30" as="geometry" />
        </mxCell>
        <mxCell id="RTbSvToknn_Ha28EU1Vl-62" value="" style="html=1;strokeWidth=1;shadow=0;dashed=0;shape=mxgraph.ios7.misc.notification;fillColor=#FF3B2F;strokeColor=none;buttonText=;strokeColor2=#222222;fontColor=#222222;fontSize=8;verticalLabelPosition=bottom;verticalAlign=top;align=center;sketch=0;" vertex="1" parent="1">
          <mxGeometry x="180" y="40" width="15" height="15" as="geometry" />
        </mxCell>
      </root>
    </mxGraphModel>
  </diagram>
</mxfile>
